<?xml version="1.0" standalone="no"?>
<!DOCTYPE svg PUBLIC "-//W3C//DTD SVG 20010904//EN"
 "http://www.w3.org/TR/2001/REC-SVG-20010904/DTD/svg10.dtd">
<svg version="1.0" xmlns="http://www.w3.org/2000/svg"
 width="445.000000pt" height="126.000000pt" viewBox="0 0 445.000000 126.000000"
 preserveAspectRatio="xMidYMid meet">

<g transform="translate(0.000000,126.000000) scale(0.100000,-0.100000)"
fill="#000000" stroke="none">
<path d="M445 995 c-38 -37 -35 -95 6 -129 49 -41 106 -29 134 30 41 87 -72
168 -140 99z"/>
<path d="M282 984 c-28 -19 -30 -74 -4 -97 42 -38 102 -8 102 51 0 32 -29 62
-60 62 -9 0 -26 -7 -38 -16z"/>
<path d="M660 987 c-53 -26 -30 -117 29 -117 32 0 44 8 60 37 14 27 0 67 -28
82 -25 14 -30 14 -61 -2z"/>
<path d="M3887 973 c-4 -3 -7 -127 -7 -275 l0 -268 55 0 55 0 0 275 0 275 -48
0 c-27 0 -52 -3 -55 -7z"/>
<path d="M157 964 c-13 -13 -7 -51 9 -65 23 -19 49 1 49 37 0 24 -5 30 -25 32
-14 2 -29 0 -33 -4z"/>
<path d="M794 956 c-9 -23 -1 -48 19 -60 26 -16 62 27 47 55 -13 22 -58 26
-66 5z"/>
<path d="M1856 934 c-25 -24 -20 -61 10 -81 24 -15 29 -15 53 -2 49 28 32 99
-24 99 -13 0 -31 -7 -39 -16z"/>
<path d="M2457 893 c-4 -3 -7 -28 -7 -55 0 -41 -3 -48 -20 -48 -17 0 -20 -7
-20 -45 0 -38 3 -45 20 -45 17 0 20 -7 20 -52 0 -88 17 -169 41 -194 26 -27
74 -39 124 -30 34 7 35 9 35 50 l0 43 -37 -1 c-44 -1 -50 13 -52 117 l-1 67
45 0 45 0 0 44 0 45 -42 3 -43 3 -3 53 -3 52 -48 0 c-26 0 -51 -3 -54 -7z"/>
<path d="M140 840 c-28 -28 -25 -64 6 -89 15 -12 32 -21 39 -21 24 0 65 41 65
66 0 31 -33 64 -65 64 -14 0 -34 -9 -45 -20z"/>
<path d="M779 839 c-27 -27 -21 -66 12 -92 62 -46 134 38 79 93 -26 26 -64 26
-91 -1z"/>
<path d="M317 804 c-13 -13 -7 -51 9 -65 23 -19 49 1 49 37 0 24 -5 30 -25 32
-14 2 -29 0 -33 -4z"/>
<path d="M460 790 c-28 -28 -25 -64 6 -89 15 -12 32 -21 39 -21 24 0 65 41 65
66 0 31 -33 64 -65 64 -14 0 -34 -9 -45 -20z"/>
<path d="M634 796 c-9 -23 -1 -48 19 -60 26 -16 62 27 47 55 -13 22 -58 26
-66 5z"/>
<path d="M1333 790 c-105 -24 -167 -144 -129 -245 46 -119 189 -162 298 -90
l42 28 -38 33 -39 33 -25 -19 c-74 -59 -170 29 -132 121 24 58 88 71 136 28
20 -19 21 -18 55 17 l34 35 -28 24 c-44 39 -106 51 -174 35z"/>
<path d="M1728 784 c-16 -8 -28 -10 -28 -4 0 6 -24 10 -55 10 l-55 0 0 -180 0
-180 55 0 55 0 0 123 c0 141 6 153 75 159 36 3 40 6 46 38 5 23 3 37 -4 42
-19 12 -60 8 -89 -8z"/>
<path d="M2158 786 c-16 -8 -28 -11 -28 -5 0 5 -25 9 -55 9 l-55 0 0 -271 0
-270 53 3 52 3 3 93 c2 85 4 93 20 86 9 -5 43 -9 74 -9 63 0 97 19 135 74 68
101 13 258 -102 290 -52 14 -64 14 -97 -3z m85 -94 c25 -27 39 -74 32 -108 -7
-37 -50 -84 -77 -84 -77 0 -115 125 -56 187 26 28 78 31 101 5z"/>
<path d="M2865 796 c-5 -3 -22 -7 -37 -10 -41 -9 -95 -61 -114 -111 -61 -160
103 -308 261 -236 176 80 133 330 -61 355 -21 3 -43 4 -49 2z m65 -101 c39
-20 58 -81 40 -125 -27 -66 -92 -80 -134 -29 -42 50 -30 129 24 156 32 16 35
16 70 -2z"/>
<path d="M3246 785 c-108 -38 -156 -158 -105 -263 51 -103 199 -135 293 -61
14 11 26 23 26 27 0 4 -16 19 -35 35 l-35 27 -20 -20 c-22 -22 -76 -26 -101
-7 -42 32 -52 108 -19 150 33 42 78 43 132 5 15 -11 23 -8 50 20 l33 33 -29
24 c-29 23 -96 45 -133 45 -10 -1 -35 -7 -57 -15z"/>
<path d="M3610 788 c-36 -10 -90 -44 -90 -57 0 -4 16 -15 36 -24 30 -15 41
-16 69 -5 39 14 85 -1 85 -27 0 -11 -12 -15 -49 -15 -123 0 -196 -81 -157
-174 20 -47 70 -70 135 -62 25 3 76 6 114 5 l67 0 0 145 c0 139 -1 146 -25
174 -15 18 -41 34 -69 41 -52 13 -69 13 -116 -1z m100 -236 c0 -21 -7 -32 -25
-40 -33 -15 -58 -15 -73 0 -30 30 2 68 59 68 36 0 39 -2 39 -28z"/>
<path d="M4176 785 c-190 -67 -156 -344 44 -363 56 -5 126 16 155 48 16 18 15
20 -17 49 -39 36 -40 36 -63 11 -32 -36 -97 -25 -120 21 -37 71 -1 153 68 153
21 0 45 -8 56 -18 20 -18 21 -18 56 8 19 15 35 31 35 36 0 14 -52 47 -95 59
-51 14 -71 13 -119 -4z"/>
<path d="M1840 610 l0 -180 55 0 55 0 0 180 0 180 -55 0 -55 0 0 -180z"/>
<path d="M132 684 c-18 -12 -22 -25 -22 -69 0 -34 5 -59 15 -69 55 -55 145
-14 145 66 0 73 -79 114 -138 72z"/>
<path d="M765 675 c-38 -37 -35 -95 6 -129 35 -30 58 -32 98 -11 40 20 55 66
37 110 -25 59 -97 75 -141 30z"/>
<path d="M340 667 c-54 -27 -30 -117 31 -117 43 0 66 30 59 80 -4 36 -52 56
-90 37z"/>
<path d="M610 667 c-53 -26 -30 -117 29 -117 32 0 44 8 60 37 15 30 -1 71 -34
83 -31 12 -25 12 -55 -3z"/>
<path d="M474 636 c-9 -23 -1 -48 19 -60 26 -16 62 27 47 55 -13 22 -58 26
-66 5z"/>
<path d="M460 520 c-28 -28 -25 -64 6 -89 15 -12 32 -21 39 -21 24 0 65 41 65
66 0 31 -33 64 -65 64 -14 0 -34 -9 -45 -20z"/>
<path d="M140 470 c-11 -11 -20 -30 -20 -43 0 -28 39 -67 66 -67 27 0 64 40
64 68 0 29 -34 62 -65 62 -14 0 -34 -9 -45 -20z"/>
<path d="M317 484 c-13 -13 -7 -51 9 -65 23 -19 49 1 49 37 0 24 -5 30 -25 32
-14 2 -29 0 -33 -4z"/>
<path d="M637 483 c-12 -12 -7 -50 8 -63 32 -26 74 16 53 54 -9 16 -49 22 -61
9z"/>
<path d="M780 470 c-28 -28 -25 -64 6 -89 34 -26 54 -26 82 -1 42 39 14 110
-43 110 -14 0 -34 -9 -45 -20z"/>
<path d="M445 355 c-48 -47 -25 -135 40 -151 39 -10 85 15 101 53 37 88 -74
166 -141 98z"/>
<path d="M290 347 c-54 -27 -30 -117 31 -117 37 0 59 24 59 64 0 50 -44 76
-90 53z"/>
<path d="M670 353 c-63 -23 -46 -123 21 -123 46 0 75 42 59 85 -7 19 -50 50
-63 44 -1 0 -9 -3 -17 -6z"/>
<path d="M157 324 c-13 -13 -7 -51 9 -65 23 -19 49 1 49 37 0 24 -5 30 -25 32
-14 2 -29 0 -33 -4z"/>
<path d="M797 323 c-12 -12 -7 -50 8 -63 32 -26 74 16 53 54 -9 16 -49 22 -61
9z"/>
</g>
</svg>
